<svg width="323" height="336" viewBox="0 0 323 336" fill="none" xmlns="http://www.w3.org/2000/svg">
<path fill-rule="evenodd" clip-rule="evenodd" d="M320.584 74.7204C320.703 75.1607 320.764 75.6147 320.765 76.0709V146.967C320.765 147.877 320.525 148.771 320.069 149.558C319.613 150.345 318.957 150.998 318.168 151.451L258.678 185.71V253.615C258.678 255.463 257.696 257.168 256.094 258.099L131.913 329.602C131.629 329.764 131.319 329.867 131.009 329.977C130.893 330.016 130.783 330.087 130.66 330.119C129.792 330.348 128.879 330.348 128.011 330.119C127.869 330.08 127.74 330.003 127.604 329.951C127.32 329.848 127.023 329.757 126.752 329.602L2.59692 258.099C1.8082 257.646 1.15286 256.993 0.696934 256.205C0.241012 255.418 0.000624936 254.524 0 253.615L0 40.9266C0 40.4613 0.0646 40.009 0.18088 39.5696C0.21964 39.421 0.31008 39.2853 0.36176 39.1367C0.45866 38.8653 0.5491 38.5875 0.69122 38.3355C0.78812 38.1675 0.93024 38.0318 1.04652 37.8767C1.1951 37.6699 1.33076 37.4567 1.50518 37.2758C1.65376 37.1272 1.84756 37.0173 2.01552 36.8881C2.20286 36.733 2.37082 36.565 2.584 36.4422L64.6711 0.690553C65.4571 0.238119 66.3481 0 67.2551 0C68.162 0 69.053 0.238119 69.8391 0.690553L131.92 36.4422H131.933C132.139 36.5715 132.314 36.733 132.501 36.8816C132.669 37.0109 132.856 37.1272 133.005 37.2693C133.186 37.4567 133.315 37.6699 133.47 37.8767C133.58 38.0318 133.728 38.1675 133.819 38.3355C133.967 38.5939 134.051 38.8653 134.155 39.1367C134.206 39.2853 134.297 39.421 134.336 39.5761C134.455 40.0164 134.515 40.4704 134.517 40.9266V173.769L186.248 143.975V76.0644C186.248 75.6121 186.313 75.1533 186.429 74.7204C186.474 74.5653 186.558 74.4296 186.61 74.281C186.713 74.0096 186.804 73.7318 186.946 73.4798C187.043 73.3118 187.185 73.1761 187.295 73.021C187.45 72.8142 187.579 72.601 187.76 72.4201C187.908 72.2715 188.096 72.1616 188.264 72.0324C188.458 71.8773 188.626 71.7093 188.832 71.5866L250.926 35.8349C251.712 35.3818 252.603 35.1433 253.51 35.1433C254.417 35.1433 255.308 35.3818 256.094 35.8349L318.174 71.5866C318.394 71.7158 318.562 71.8773 318.756 72.0259C318.917 72.1552 319.105 72.2715 319.253 72.4136C319.434 72.601 319.563 72.8142 319.718 73.021C319.835 73.1761 319.977 73.3118 320.067 73.4798C320.216 73.7318 320.3 74.0096 320.403 74.281C320.461 74.4296 320.545 74.5653 320.584 74.7204ZM310.416 143.975L258.678 173.769L310.422 143.975H310.416ZM248.335 250.623V191.629L218.813 208.494L134.51 256.619V316.169L248.335 250.623ZM10.3489 49.8758V250.623L124.161 316.162V256.626L64.7034 222.967L64.684 222.955L64.6581 222.942C64.4579 222.825 64.2899 222.657 64.1026 222.515C63.9411 222.386 63.7537 222.283 63.6116 222.14L63.5987 222.121C63.4307 221.959 63.3145 221.759 63.1723 221.578C63.0431 221.404 62.8881 221.255 62.7847 221.074L62.7783 221.055C62.662 220.861 62.5909 220.628 62.507 220.409C62.423 220.215 62.3132 220.034 62.2615 219.827C62.1969 219.582 62.184 219.317 62.1581 219.065C62.1323 218.871 62.0806 218.677 62.0806 218.483V218.47V79.6699L32.0739 62.3789L10.3489 49.8758ZM67.2615 11.1453L15.5363 40.9266L67.2486 70.7078L118.967 40.9201L67.2486 11.1453H67.2615ZM94.161 197.005L124.168 179.727V49.8758L102.443 62.3853L72.4295 79.6699V209.521L94.161 197.005ZM248.335 173.769L196.597 143.975L226.604 161.253L248.335 173.769ZM129.329 247.67L205.189 204.352L243.109 182.706L191.429 152.944L131.926 187.209L77.6944 218.438L129.329 247.67Z" fill="#3777DF"/>
<path d="M255 85.625C268.462 85.625 279.375 96.5381 279.375 110M294 110C294 131.539 276.539 149 255 149C233.461 149 216 131.539 216 110C216 88.4609 233.461 71 255 71C276.539 71 294 88.4609 294 110Z" stroke="white" stroke-width="5" stroke-linecap="round" stroke-linejoin="round"/>
</svg>
